<svg xmlns="http://www.w3.org/2000/svg" xmlns:xlink="http://www.w3.org/1999/xlink" width="154.92" height="154.92" viewBox="0 0 154.92 154.92">
  <defs>
    <linearGradient id="linear-gradient" x1="0.672" y1="0.062" x2="0.299" y2="0.918" gradientUnits="objectBoundingBox">
      <stop offset="0" stop-color="#b8de7d"/>
      <stop offset="1" stop-color="#09d2cd"/>
    </linearGradient>
  </defs>
  <g id="chart_item_03" transform="translate(-724.806 -561.315)">
    <path id="パス_3105" data-name="パス 3105" d="M77.46,0A77.46,77.46,0,1,1,0,77.46,77.46,77.46,0,0,1,77.46,0Z" transform="translate(724.806 561.315)" fill="url(#linear-gradient)"/>
    <path id="パス_3107" data-name="パス 3107" d="M-56.48-13.34V0h2.76a7.655,7.655,0,0,0,4.88-1.28,6.361,6.361,0,0,0,2.68-5.38,6.6,6.6,0,0,0-2.56-5.38,7.769,7.769,0,0,0-4.96-1.3Zm2.04,1.92h.88A5.976,5.976,0,0,1-50-10.5a4.753,4.753,0,0,1,1.8,3.84,4.7,4.7,0,0,1-1.82,3.8,5.776,5.776,0,0,1-3.54.94h-.88ZM-37.8-7.44a3.07,3.07,0,0,0-2.5-1.2,4.116,4.116,0,0,0-4.1,4.42c0,2.32,1.48,4.48,4.08,4.48A3.234,3.234,0,0,0-37.8-.88V0h1.96V-8.42H-37.8Zm-2.26.56a2.413,2.413,0,0,1,2.38,2.72A2.4,2.4,0,0,1-40.06-1.5,2.457,2.457,0,0,1-42.4-4.18,2.453,2.453,0,0,1-40.06-6.88Zm10.22.26v-1.8h-1.5V-11.5H-33.3v3.08h-.82v1.8h.82V0h1.96V-6.62Zm7.48-.82a3.07,3.07,0,0,0-2.5-1.2,4.116,4.116,0,0,0-4.1,4.42c0,2.32,1.48,4.48,4.08,4.48A3.234,3.234,0,0,0-22.36-.88V0h1.96V-8.42h-1.96Zm-2.26.56a2.413,2.413,0,0,1,2.38,2.72A2.4,2.4,0,0,1-24.62-1.5a2.457,2.457,0,0,1-2.34-2.68A2.453,2.453,0,0,1-24.62-6.88ZM-3.66,0h2.2L-7.78-14.12-14.42,0h2.2l1.46-3.22h5.7ZM-9.92-5.14l2.06-4.52,1.98,4.52ZM-.16,0H1.8V-4.04c0-2.72.9-2.84,1.78-2.84.74,0,1.54.06,1.54,2.2V0H7.08V-5.16A3.762,3.762,0,0,0,6.56-7.5,2.815,2.815,0,0,0,4.08-8.64a2.9,2.9,0,0,0-2.28,1v-.78H-.16ZM15.72-7.44a3.07,3.07,0,0,0-2.5-1.2,4.116,4.116,0,0,0-4.1,4.42C9.12-1.9,10.6.26,13.2.26A3.234,3.234,0,0,0,15.72-.88V0h1.96V-8.42H15.72Zm-2.26.56a2.413,2.413,0,0,1,2.38,2.72A2.4,2.4,0,0,1,13.46-1.5a2.457,2.457,0,0,1-2.34-2.68A2.453,2.453,0,0,1,13.46-6.88Zm6.7-7.7V0h1.96V-14.58ZM23.98,4.58h2.2l6.7-13h-2.2L28.24-3.5l-2.4-4.92H23.48l3.6,7.1ZM37.96-6.62v-1.8h-1.5V-11.5H34.5v3.08h-.82v1.8h.82V0h1.96V-6.62Zm1.32-1.8V0h1.96V-8.42ZM39-11.9a1.23,1.23,0,0,0,1.26,1.26,1.23,1.23,0,0,0,1.26-1.26,1.23,1.23,0,0,0-1.26-1.26A1.23,1.23,0,0,0,39-11.9ZM50.24-8.04a4.52,4.52,0,0,0-2.3-.6A4.572,4.572,0,0,0,44.56-7.4a4.5,4.5,0,0,0-1.28,3.26,4.376,4.376,0,0,0,1.2,3.16A4.1,4.1,0,0,0,47.68.26,4.609,4.609,0,0,0,50.24-.4V-2.58A3.281,3.281,0,0,1,47.82-1.5a2.546,2.546,0,0,1-1.78-.68,2.789,2.789,0,0,1-.76-2.02A2.691,2.691,0,0,1,46-6.14a2.52,2.52,0,0,1,1.86-.74,3.306,3.306,0,0,1,2.38,1.04Zm7.02.88A2.891,2.891,0,0,0,56.3-8.2a2.635,2.635,0,0,0-1.56-.44,2.713,2.713,0,0,0-2.06.8,2.629,2.629,0,0,0-.7,1.8,1.836,1.836,0,0,0,.6,1.42,4.154,4.154,0,0,0,1.16.72l.72.34a2.582,2.582,0,0,1,.84.52.908.908,0,0,1,.26.64.993.993,0,0,1-.28.66,1.18,1.18,0,0,1-.8.28,1.2,1.2,0,0,1-.86-.32,2.216,2.216,0,0,1-.46-.8l-1.6.76A3.281,3.281,0,0,0,52.64-.28a2.9,2.9,0,0,0,1.82.54,3.007,3.007,0,0,0,2.36-.94,2.8,2.8,0,0,0,.74-1.92,2.078,2.078,0,0,0-.62-1.56,4.041,4.041,0,0,0-1.18-.78l-1-.5c-.42-.22-.54-.26-.66-.34a.539.539,0,0,1-.28-.48A.634.634,0,0,1,54-6.7a.831.831,0,0,1,.6-.22,1.41,1.41,0,0,1,1.2.72Z" transform="translate(800.02 645.865)" fill="#fff"/>
  </g>
</svg>
