<svg xmlns="http://www.w3.org/2000/svg" width="662.779" height="565.531" viewBox="0 0 662.779 565.531">
  <g id="chart_text" transform="translate(-254.044 -212.992)">
    <g id="グループ_8524" data-name="グループ 8524">
      <path id="パス_3124" data-name="パス 3124" d="M-37.428-16.008V0h4.008a6.2,6.2,0,0,0,4.488-1.56,3.9,3.9,0,0,0,1.056-2.88,4.167,4.167,0,0,0-1.056-3A4.4,4.4,0,0,0-31-8.592a2.653,2.653,0,0,0,1.2-1.1,3.491,3.491,0,0,0,.48-1.9,4.108,4.108,0,0,0-1.272-3.168c-1.056-.984-2.352-1.248-4.416-1.248Zm2.448,2.3h.84a2.625,2.625,0,0,1,1.944.6,1.978,1.978,0,0,1,.576,1.536,2.429,2.429,0,0,1-.624,1.824,2.814,2.814,0,0,1-1.992.624h-.744Zm0,6.6h1.536a3.515,3.515,0,0,1,2.52.72,2.4,2.4,0,0,1,.648,1.68,2.3,2.3,0,0,1-.792,1.776,4.221,4.221,0,0,1-2.424.624H-34.98Zm9.744-3v5.856a4.227,4.227,0,0,0,1.08,3.312A4.439,4.439,0,0,0-20.964.312,4.608,4.608,0,0,0-17.676-.936,4.227,4.227,0,0,0-16.6-4.248V-10.1h-2.352V-4.32A2.909,2.909,0,0,1-19.38-2.5a1.911,1.911,0,0,1-1.536.7,1.911,1.911,0,0,1-1.536-.7,2.909,2.909,0,0,1-.432-1.824V-10.1ZM-7.452-8.592A3.47,3.47,0,0,0-8.6-9.84a3.162,3.162,0,0,0-1.872-.528,3.256,3.256,0,0,0-2.472.96,3.155,3.155,0,0,0-.84,2.16,2.2,2.2,0,0,0,.72,1.7,4.984,4.984,0,0,0,1.392.864l.864.408A3.1,3.1,0,0,1-9.8-3.648a1.09,1.09,0,0,1,.312.768,1.192,1.192,0,0,1-.336.792,1.416,1.416,0,0,1-.96.336,1.441,1.441,0,0,1-1.032-.384,2.659,2.659,0,0,1-.552-.96l-1.92.912A3.937,3.937,0,0,0-13-.336a3.478,3.478,0,0,0,2.184.648A3.608,3.608,0,0,0-7.98-.816a3.355,3.355,0,0,0,.888-2.3,2.494,2.494,0,0,0-.744-1.872,4.849,4.849,0,0,0-1.416-.936l-1.2-.6c-.5-.264-.648-.312-.792-.408a.646.646,0,0,1-.336-.576.761.761,0,0,1,.216-.528,1,1,0,0,1,.72-.264A1.692,1.692,0,0,1-9.2-7.44ZM-4.98-10.1V0h2.352V-10.1Zm-.336-4.176A1.476,1.476,0,0,0-3.8-12.768,1.476,1.476,0,0,0-2.292-14.28,1.476,1.476,0,0,0-3.8-15.792,1.476,1.476,0,0,0-5.316-14.28ZM.324,0H2.676V-4.848c0-3.264,1.08-3.408,2.136-3.408.888,0,1.848.072,1.848,2.64V0H9.012V-6.192A4.515,4.515,0,0,0,8.388-9a3.378,3.378,0,0,0-2.976-1.368,3.48,3.48,0,0,0-2.736,1.2V-10.1H.324ZM19.068-3.408a3.65,3.65,0,0,1-.936,1.1,2.476,2.476,0,0,1-1.608.5,2.4,2.4,0,0,1-1.8-.648,3.34,3.34,0,0,1-.864-2.04h7.248v-.288a6.067,6.067,0,0,0-1.416-4.272,4.35,4.35,0,0,0-3.24-1.32A4.6,4.6,0,0,0,13.068-9,5.923,5.923,0,0,0,11.46-4.848,5.423,5.423,0,0,0,12.948-.984a4.48,4.48,0,0,0,3.408,1.3,5.559,5.559,0,0,0,2.976-.768,5.3,5.3,0,0,0,1.7-1.848Zm-5.04-3a2.648,2.648,0,0,1,.72-1.3A2.266,2.266,0,0,1,16.4-8.352a2.256,2.256,0,0,1,1.584.576,2.444,2.444,0,0,1,.72,1.368Zm15.7-2.184A3.47,3.47,0,0,0,28.572-9.84a3.162,3.162,0,0,0-1.872-.528,3.256,3.256,0,0,0-2.472.96,3.155,3.155,0,0,0-.84,2.16,2.2,2.2,0,0,0,.72,1.7A4.984,4.984,0,0,0,25.5-4.68l.864.408a3.1,3.1,0,0,1,1.008.624,1.09,1.09,0,0,1,.312.768,1.192,1.192,0,0,1-.336.792,1.416,1.416,0,0,1-.96.336,1.441,1.441,0,0,1-1.032-.384A2.659,2.659,0,0,1,24.8-3.1l-1.92.912a3.937,3.937,0,0,0,1.3,1.848,3.478,3.478,0,0,0,2.184.648A3.608,3.608,0,0,0,29.2-.816a3.355,3.355,0,0,0,.888-2.3,2.494,2.494,0,0,0-.744-1.872,4.849,4.849,0,0,0-1.416-.936l-1.2-.6c-.5-.264-.648-.312-.792-.408a.646.646,0,0,1-.336-.576.761.761,0,0,1,.216-.528,1,1,0,0,1,.72-.264,1.692,1.692,0,0,1,1.44.864Zm8.64,0A3.47,3.47,0,0,0,37.212-9.84a3.162,3.162,0,0,0-1.872-.528,3.256,3.256,0,0,0-2.472.96,3.155,3.155,0,0,0-.84,2.16,2.2,2.2,0,0,0,.72,1.7,4.984,4.984,0,0,0,1.392.864L35-4.272a3.1,3.1,0,0,1,1.008.624,1.09,1.09,0,0,1,.312.768,1.192,1.192,0,0,1-.336.792,1.416,1.416,0,0,1-.96.336A1.441,1.441,0,0,1,34-2.136a2.659,2.659,0,0,1-.552-.96l-1.92.912a3.937,3.937,0,0,0,1.3,1.848A3.478,3.478,0,0,0,35,.312,3.608,3.608,0,0,0,37.836-.816a3.355,3.355,0,0,0,.888-2.3,2.494,2.494,0,0,0-.744-1.872,4.849,4.849,0,0,0-1.416-.936l-1.2-.6c-.5-.264-.648-.312-.792-.408a.646.646,0,0,1-.336-.576.761.761,0,0,1,.216-.528,1,1,0,0,1,.72-.264,1.692,1.692,0,0,1,1.44.864Z" transform="translate(592.533 229)" fill="#111"/>
    </g>
    <path id="パス_3104" data-name="パス 3104" d="M-29.424-16.008V0h3.312a9.186,9.186,0,0,0,5.856-1.536A7.633,7.633,0,0,0-17.04-7.992a7.924,7.924,0,0,0-3.072-6.456,9.323,9.323,0,0,0-5.952-1.56Zm2.448,2.3h1.056a7.171,7.171,0,0,1,4.272,1.1,5.7,5.7,0,0,1,2.16,4.608,5.644,5.644,0,0,1-2.184,4.56A6.931,6.931,0,0,1-25.92-2.3h-1.056ZM-14.4-10.1V0h2.352V-10.1Zm-.336-4.176a1.476,1.476,0,0,0,1.512,1.512,1.476,1.476,0,0,0,1.512-1.512,1.476,1.476,0,0,0-1.512-1.512A1.476,1.476,0,0,0-14.736-14.28ZM-1.68-9a3.8,3.8,0,0,0-3-1.368A4.6,4.6,0,0,0-8.112-8.976,5.366,5.366,0,0,0-9.6-5.064,5.712,5.712,0,0,0-8.088-1.056,4.286,4.286,0,0,0-4.752.312,3.659,3.659,0,0,0-1.68-1.128V.192a3.328,3.328,0,0,1-.768,2.544A2.525,2.525,0,0,1-4.3,3.408a2.4,2.4,0,0,1-1.824-.7,3.346,3.346,0,0,1-.744-1.584h-2.28A5.683,5.683,0,0,0-7.656,4.272,4.464,4.464,0,0,0-4.344,5.52,5.132,5.132,0,0,0-.984,4.44C.408,3.264.672,1.56.672-.816V-10.1H-1.68Zm-2.712.744a2.5,2.5,0,0,1,1.9.72,3.38,3.38,0,0,1,.96,2.544,3.359,3.359,0,0,1-.888,2.376A2.56,2.56,0,0,1-4.392-1.8a2.752,2.752,0,0,1-1.8-.672A3.468,3.468,0,0,1-7.2-5.016,3.513,3.513,0,0,1-6.168-7.584,2.434,2.434,0,0,1-4.392-8.256ZM3.648-10.1V0H6V-10.1ZM3.312-14.28a1.476,1.476,0,0,0,1.512,1.512A1.476,1.476,0,0,0,6.336-14.28a1.476,1.476,0,0,0-1.512-1.512A1.476,1.476,0,0,0,3.312-14.28ZM13.2-7.944V-10.1H11.4v-3.7H9.048v3.7H8.064v2.16h.984V0H11.4V-7.944Zm8.976-.984a3.684,3.684,0,0,0-3-1.44,4.939,4.939,0,0,0-4.92,5.3c0,2.784,1.776,5.376,4.9,5.376a3.88,3.88,0,0,0,3.024-1.368V0h2.352V-10.1H22.176Zm-2.712.672c1.488,0,2.856,1.056,2.856,3.264A2.884,2.884,0,0,1,19.464-1.8a2.949,2.949,0,0,1-2.808-3.216C16.656-6.816,17.76-8.256,19.464-8.256ZM27.5-17.5V0h2.352V-17.5Z" transform="translate(897.114 714.621) rotate(-60)" fill="#111"/>
    <path id="パス_3123" data-name="パス 3123" d="M-59.748-13.608a5.453,5.453,0,0,0-1.224-1.608,4.72,4.72,0,0,0-3.216-1.08c-3,0-4.68,2.064-4.68,4.224,0,2.4,1.944,3.5,3.264,4.056l1.536.648c1.056.432,2.3,1.1,2.3,2.736A2.572,2.572,0,0,1-64.4-1.944a2.526,2.526,0,0,1-2.088-.96,3.457,3.457,0,0,1-.672-2.04l-2.424.528A5.182,5.182,0,0,0-68.244-1.3,4.683,4.683,0,0,0-64.476.312a4.933,4.933,0,0,0,5.16-5.136c0-1.824-.816-3.5-3.768-4.7l-1.608-.648c-1.56-.624-1.728-1.464-1.728-1.944a1.984,1.984,0,0,1,2.256-1.92,2.553,2.553,0,0,1,1.728.576,2.543,2.543,0,0,1,.72,1.008ZM-49.6-3.408a3.65,3.65,0,0,1-.936,1.1,2.476,2.476,0,0,1-1.608.5,2.4,2.4,0,0,1-1.8-.648,3.34,3.34,0,0,1-.864-2.04h7.248v-.288a6.067,6.067,0,0,0-1.416-4.272,4.35,4.35,0,0,0-3.24-1.32A4.6,4.6,0,0,0-55.6-9,5.923,5.923,0,0,0-57.2-4.848,5.423,5.423,0,0,0-55.716-.984a4.48,4.48,0,0,0,3.408,1.3,5.559,5.559,0,0,0,2.976-.768,5.3,5.3,0,0,0,1.7-1.848Zm-5.04-3a2.648,2.648,0,0,1,.72-1.3,2.266,2.266,0,0,1,1.656-.648,2.256,2.256,0,0,1,1.584.576,2.444,2.444,0,0,1,.72,1.368ZM-45.108,0h2.352V-5.232a3.255,3.255,0,0,1,.648-2.328,1.833,1.833,0,0,1,1.464-.552,2.129,2.129,0,0,1,1.2.36l.96-2.136a3.489,3.489,0,0,0-1.848-.48,2.716,2.716,0,0,0-1.44.336,4.068,4.068,0,0,0-.984.84V-10.1h-2.352Zm7.128-10.1L-32.748.72-27.516-10.1h-2.64l-2.592,5.76L-35.34-10.1Zm12.1,0V0h2.352V-10.1Zm-.336-4.176a1.476,1.476,0,0,0,1.512,1.512A1.476,1.476,0,0,0-23.2-14.28a1.476,1.476,0,0,0-1.512-1.512A1.476,1.476,0,0,0-26.22-14.28Zm13.488,4.632a5.424,5.424,0,0,0-2.76-.72A5.486,5.486,0,0,0-19.548-8.88a5.4,5.4,0,0,0-1.536,3.912,5.251,5.251,0,0,0,1.44,3.792A4.922,4.922,0,0,0-15.8.312,5.531,5.531,0,0,0-12.732-.48V-3.1a3.937,3.937,0,0,1-2.9,1.3,3.056,3.056,0,0,1-2.136-.816,3.347,3.347,0,0,1-.912-2.424,3.23,3.23,0,0,1,.864-2.328,3.025,3.025,0,0,1,2.232-.888,3.968,3.968,0,0,1,2.856,1.248ZM-3.4-3.408a3.65,3.65,0,0,1-.936,1.1,2.476,2.476,0,0,1-1.608.5,2.4,2.4,0,0,1-1.8-.648A3.34,3.34,0,0,1-8.6-4.488h7.248v-.288A6.067,6.067,0,0,0-2.772-9.048a4.35,4.35,0,0,0-3.24-1.32A4.6,4.6,0,0,0-9.4-9,5.923,5.923,0,0,0-11-4.848,5.423,5.423,0,0,0-9.516-.984,4.48,4.48,0,0,0-6.108.312,5.559,5.559,0,0,0-3.132-.456,5.3,5.3,0,0,0-1.428-2.3Zm-5.04-3a2.648,2.648,0,0,1,.72-1.3A2.266,2.266,0,0,1-6.06-8.352a2.256,2.256,0,0,1,1.584.576,2.444,2.444,0,0,1,.72,1.368Zm15.552-9.6V0h3.312a9.186,9.186,0,0,0,5.856-1.536A7.633,7.633,0,0,0,19.5-7.992a7.924,7.924,0,0,0-3.072-6.456,9.323,9.323,0,0,0-5.952-1.56Zm2.448,2.3H10.62a7.171,7.171,0,0,1,4.272,1.1,5.7,5.7,0,0,1,2.16,4.608,5.644,5.644,0,0,1-2.184,4.56A6.931,6.931,0,0,1,10.62-2.3H9.564ZM29.22-3.408a3.65,3.65,0,0,1-.936,1.1,2.476,2.476,0,0,1-1.608.5,2.4,2.4,0,0,1-1.8-.648,3.34,3.34,0,0,1-.864-2.04H31.26v-.288a6.067,6.067,0,0,0-1.416-4.272,4.35,4.35,0,0,0-3.24-1.32A4.6,4.6,0,0,0,23.22-9a5.923,5.923,0,0,0-1.608,4.152A5.423,5.423,0,0,0,23.1-.984a4.48,4.48,0,0,0,3.408,1.3,5.559,5.559,0,0,0,2.976-.768,5.3,5.3,0,0,0,1.7-1.848Zm-5.04-3a2.648,2.648,0,0,1,.72-1.3,2.266,2.266,0,0,1,1.656-.648,2.256,2.256,0,0,1,1.584.576,2.444,2.444,0,0,1,.72,1.368Zm15.7-2.184A3.47,3.47,0,0,0,38.724-9.84a3.162,3.162,0,0,0-1.872-.528,3.256,3.256,0,0,0-2.472.96,3.155,3.155,0,0,0-.84,2.16,2.2,2.2,0,0,0,.72,1.7,4.984,4.984,0,0,0,1.392.864l.864.408a3.1,3.1,0,0,1,1.008.624,1.09,1.09,0,0,1,.312.768,1.192,1.192,0,0,1-.336.792,1.416,1.416,0,0,1-.96.336,1.441,1.441,0,0,1-1.032-.384,2.659,2.659,0,0,1-.552-.96l-1.92.912a3.937,3.937,0,0,0,1.3,1.848,3.478,3.478,0,0,0,2.184.648A3.608,3.608,0,0,0,39.348-.816a3.355,3.355,0,0,0,.888-2.3,2.494,2.494,0,0,0-.744-1.872,4.849,4.849,0,0,0-1.416-.936l-1.2-.6c-.5-.264-.648-.312-.792-.408a.646.646,0,0,1-.336-.576.761.761,0,0,1,.216-.528,1,1,0,0,1,.72-.264,1.692,1.692,0,0,1,1.44.864ZM42.348-10.1V0H44.7V-10.1Zm-.336-4.176a1.476,1.476,0,0,0,1.512,1.512,1.476,1.476,0,0,0,1.512-1.512,1.476,1.476,0,0,0-1.512-1.512A1.476,1.476,0,0,0,42.012-14.28ZM55.068-9a3.8,3.8,0,0,0-3-1.368,4.6,4.6,0,0,0-3.432,1.392,5.366,5.366,0,0,0-1.488,3.912A5.712,5.712,0,0,0,48.66-1.056,4.286,4.286,0,0,0,52,.312a3.659,3.659,0,0,0,3.072-1.44V.192A3.328,3.328,0,0,1,54.3,2.736a2.525,2.525,0,0,1-1.848.672,2.4,2.4,0,0,1-1.824-.7,3.346,3.346,0,0,1-.744-1.584H47.6a5.683,5.683,0,0,0,1.488,3.144A4.464,4.464,0,0,0,52.4,5.52a5.132,5.132,0,0,0,3.36-1.08C57.156,3.264,57.42,1.56,57.42-.816V-10.1H55.068Zm-2.712.744a2.5,2.5,0,0,1,1.9.72,3.38,3.38,0,0,1,.96,2.544,3.359,3.359,0,0,1-.888,2.376,2.56,2.56,0,0,1-1.968.816,2.752,2.752,0,0,1-1.8-.672,3.468,3.468,0,0,1-1.008-2.544A3.513,3.513,0,0,1,50.58-7.584,2.434,2.434,0,0,1,52.356-8.256ZM60.372,0h2.352V-4.848c0-3.264,1.08-3.408,2.136-3.408.888,0,1.848.072,1.848,2.64V0H69.06V-6.192A4.515,4.515,0,0,0,68.436-9a3.378,3.378,0,0,0-2.976-1.368,3.48,3.48,0,0,0-2.736,1.2V-10.1H60.372Z" transform="translate(293.618 715.955) rotate(60)" fill="#111"/>
  </g>
</svg>
